<mxfile host="Electron" modified="2023-10-23T06:45:15.976Z" agent="Mozilla/5.0 (Windows NT 10.0; Win64; x64) AppleWebKit/537.36 (KHTML, like Gecko) draw.io/22.0.2 Chrome/114.0.5735.289 Electron/25.8.4 Safari/537.36" etag="IaSq0eCpJXYMicqDxkgi" version="22.0.2" type="device">
  <diagram name="페이지-1" id="-tuffhu2X5ec-0IwhFkr">
    <mxGraphModel dx="1100" dy="809" grid="1" gridSize="10" guides="1" tooltips="1" connect="1" arrows="1" fold="1" page="1" pageScale="1" pageWidth="827" pageHeight="1169" math="0" shadow="0">
      <root>
        <mxCell id="0" />
        <mxCell id="1" parent="0" />
        <mxCell id="tuVqMYTUNZtv7R-RqKll-1" value="studentLee" style="rounded=0;whiteSpace=wrap;html=1;fillColor=#bac8d3;strokeColor=#23445d;" vertex="1" parent="1">
          <mxGeometry x="120" y="80" width="120" height="60" as="geometry" />
        </mxCell>
        <mxCell id="tuVqMYTUNZtv7R-RqKll-2" value="studentLee2" style="rounded=0;whiteSpace=wrap;html=1;fillColor=#bac8d3;strokeColor=#23445d;" vertex="1" parent="1">
          <mxGeometry x="120" y="180" width="120" height="60" as="geometry" />
        </mxCell>
        <mxCell id="tuVqMYTUNZtv7R-RqKll-3" value="" style="rounded=0;whiteSpace=wrap;html=1;" vertex="1" parent="1">
          <mxGeometry x="360" y="70" width="200" height="180" as="geometry" />
        </mxCell>
        <mxCell id="tuVqMYTUNZtv7R-RqKll-4" value="&lt;font style=&quot;font-size: 15px;&quot;&gt;&lt;b&gt;힙 메모리&lt;/b&gt;&lt;/font&gt;" style="text;html=1;strokeColor=none;fillColor=none;align=center;verticalAlign=middle;whiteSpace=wrap;rounded=0;" vertex="1" parent="1">
          <mxGeometry x="410" y="30" width="100" height="30" as="geometry" />
        </mxCell>
        <mxCell id="tuVqMYTUNZtv7R-RqKll-5" value="studentID : 100&lt;br&gt;studentName : 이상원" style="rounded=0;whiteSpace=wrap;html=1;fillColor=#bac8d3;strokeColor=#23445d;" vertex="1" parent="1">
          <mxGeometry x="390" y="90" width="140" height="60" as="geometry" />
        </mxCell>
        <mxCell id="tuVqMYTUNZtv7R-RqKll-6" value="" style="endArrow=classic;html=1;rounded=0;exitX=1;exitY=0.5;exitDx=0;exitDy=0;entryX=0;entryY=0.5;entryDx=0;entryDy=0;strokeColor=#CC0000;" edge="1" parent="1" source="tuVqMYTUNZtv7R-RqKll-1" target="tuVqMYTUNZtv7R-RqKll-5">
          <mxGeometry width="50" height="50" relative="1" as="geometry">
            <mxPoint x="390" y="430" as="sourcePoint" />
            <mxPoint x="440" y="380" as="targetPoint" />
          </mxGeometry>
        </mxCell>
        <mxCell id="tuVqMYTUNZtv7R-RqKll-7" value="" style="endArrow=classic;html=1;rounded=0;exitX=1;exitY=0.5;exitDx=0;exitDy=0;entryX=0;entryY=0.75;entryDx=0;entryDy=0;strokeColor=#CC0000;" edge="1" parent="1" source="tuVqMYTUNZtv7R-RqKll-2" target="tuVqMYTUNZtv7R-RqKll-5">
          <mxGeometry width="50" height="50" relative="1" as="geometry">
            <mxPoint x="250" y="120" as="sourcePoint" />
            <mxPoint x="400" y="130" as="targetPoint" />
          </mxGeometry>
        </mxCell>
        <mxCell id="tuVqMYTUNZtv7R-RqKll-8" value="studentLee" style="rounded=0;whiteSpace=wrap;html=1;fillColor=#bac8d3;strokeColor=#23445d;" vertex="1" parent="1">
          <mxGeometry x="120" y="320" width="120" height="60" as="geometry" />
        </mxCell>
        <mxCell id="tuVqMYTUNZtv7R-RqKll-9" value="studentLee2" style="rounded=0;whiteSpace=wrap;html=1;fillColor=#bac8d3;strokeColor=#23445d;" vertex="1" parent="1">
          <mxGeometry x="120" y="420" width="120" height="60" as="geometry" />
        </mxCell>
        <mxCell id="tuVqMYTUNZtv7R-RqKll-10" value="" style="rounded=0;whiteSpace=wrap;html=1;" vertex="1" parent="1">
          <mxGeometry x="360" y="350" width="200" height="180" as="geometry" />
        </mxCell>
        <mxCell id="tuVqMYTUNZtv7R-RqKll-11" value="&lt;font style=&quot;font-size: 15px;&quot;&gt;&lt;b&gt;힙 메모리&lt;/b&gt;&lt;/font&gt;" style="text;html=1;strokeColor=none;fillColor=none;align=center;verticalAlign=middle;whiteSpace=wrap;rounded=0;" vertex="1" parent="1">
          <mxGeometry x="410" y="310" width="100" height="30" as="geometry" />
        </mxCell>
        <mxCell id="tuVqMYTUNZtv7R-RqKll-12" value="studentID : 100&lt;br&gt;studentName : 이상원" style="rounded=0;whiteSpace=wrap;html=1;fillColor=#bac8d3;strokeColor=#23445d;" vertex="1" parent="1">
          <mxGeometry x="390" y="370" width="140" height="60" as="geometry" />
        </mxCell>
        <mxCell id="tuVqMYTUNZtv7R-RqKll-13" value="" style="endArrow=classic;html=1;rounded=0;exitX=1;exitY=0.5;exitDx=0;exitDy=0;entryX=0;entryY=0.5;entryDx=0;entryDy=0;strokeColor=#CC0000;" edge="1" parent="1" source="tuVqMYTUNZtv7R-RqKll-8" target="tuVqMYTUNZtv7R-RqKll-12">
          <mxGeometry width="50" height="50" relative="1" as="geometry">
            <mxPoint x="390" y="710" as="sourcePoint" />
            <mxPoint x="440" y="660" as="targetPoint" />
          </mxGeometry>
        </mxCell>
        <mxCell id="tuVqMYTUNZtv7R-RqKll-14" value="" style="endArrow=classic;html=1;rounded=0;exitX=1;exitY=0.5;exitDx=0;exitDy=0;entryX=0;entryY=0.75;entryDx=0;entryDy=0;strokeColor=#CC0000;" edge="1" parent="1" source="tuVqMYTUNZtv7R-RqKll-9" target="tuVqMYTUNZtv7R-RqKll-12">
          <mxGeometry width="50" height="50" relative="1" as="geometry">
            <mxPoint x="250" y="400" as="sourcePoint" />
            <mxPoint x="400" y="410" as="targetPoint" />
          </mxGeometry>
        </mxCell>
        <mxCell id="tuVqMYTUNZtv7R-RqKll-15" value="studentID : 100&lt;br&gt;studentName : 이상원" style="rounded=0;whiteSpace=wrap;html=1;fillColor=#bac8d3;strokeColor=#23445d;" vertex="1" parent="1">
          <mxGeometry x="390" y="450" width="140" height="60" as="geometry" />
        </mxCell>
        <mxCell id="tuVqMYTUNZtv7R-RqKll-16" value="studentSang" style="rounded=0;whiteSpace=wrap;html=1;fillColor=#bac8d3;strokeColor=#23445d;" vertex="1" parent="1">
          <mxGeometry x="120" y="520" width="120" height="60" as="geometry" />
        </mxCell>
        <mxCell id="tuVqMYTUNZtv7R-RqKll-17" value="" style="endArrow=classic;html=1;rounded=0;exitX=1;exitY=0.5;exitDx=0;exitDy=0;entryX=0;entryY=0.5;entryDx=0;entryDy=0;strokeColor=#CC0000;" edge="1" parent="1" source="tuVqMYTUNZtv7R-RqKll-16" target="tuVqMYTUNZtv7R-RqKll-15">
          <mxGeometry width="50" height="50" relative="1" as="geometry">
            <mxPoint x="250" y="460" as="sourcePoint" />
            <mxPoint x="400" y="425" as="targetPoint" />
          </mxGeometry>
        </mxCell>
      </root>
    </mxGraphModel>
  </diagram>
</mxfile>
